<?xml version="1.0" encoding="UTF-8"?>
<svg id="NavBar" xmlns="http://www.w3.org/2000/svg" viewBox="0 0 549.86 236.57">
  <defs>
    <style>
      .cls-1 {
        fill: #0051db;
        stroke-width: 0px;
      }
    </style>
  </defs>
  <path class="cls-1" d="m33.75,69.71c-8.78,0-15.94,7.15-15.94,15.94v65.27c0,8.79,7.15,15.94,15.94,15.94s15.94-7.15,15.94-15.94v-65.27c0-8.79-7.15-15.94-15.94-15.94Zm0,109.43c-15.55,0-28.21-12.65-28.21-28.21v-65.27c0-15.56,12.66-28.21,28.21-28.21s28.22,12.66,28.22,28.21v65.27c0,15.56-12.66,28.21-28.22,28.21Z"/>
  <path class="cls-1" d="m77.9,16.31c-8.79,0-15.94,7.15-15.94,15.94v172.08c0,8.79,7.15,15.94,15.94,15.94s15.94-7.15,15.94-15.94V32.24c0-8.78-7.15-15.94-15.94-15.94Zm0,216.23c-15.56,0-28.21-12.65-28.21-28.21V32.24c0-15.55,12.66-28.21,28.21-28.21s28.21,12.66,28.21,28.21v172.08c0,15.56-12.65,28.22-28.21,28.22Z"/>
  <path class="cls-1" d="m122.06,16.31c-8.79,0-15.94,7.15-15.94,15.94v172.08c0,8.79,7.15,15.94,15.94,15.94s15.94-7.15,15.94-15.94V32.24c0-8.78-7.14-15.94-15.94-15.94Zm0,216.23c-15.56,0-28.22-12.65-28.22-28.21V32.24c0-15.55,12.66-28.21,28.22-28.21s28.21,12.66,28.21,28.21v172.08c0,15.56-12.65,28.22-28.21,28.22Z"/>
  <path class="cls-1" d="m516.11,69.71c-8.79,0-15.94,7.15-15.94,15.94v65.27c0,8.79,7.15,15.94,15.94,15.94s15.94-7.15,15.94-15.94v-65.26c0-8.79-7.15-15.94-15.94-15.94Zm0,109.43c-15.56,0-28.22-12.65-28.22-28.21v-65.27c0-15.56,12.66-28.21,28.22-28.21s28.21,12.66,28.21,28.21v65.27c0,15.56-12.65,28.21-28.21,28.21Z"/>
  <path class="cls-1" d="m471.96,16.31c-8.79,0-15.94,7.15-15.94,15.94v172.08c0,8.79,7.15,15.94,15.94,15.94s15.94-7.15,15.94-15.94V32.24c0-8.78-7.14-15.94-15.94-15.94Zm0,216.23c-15.56,0-28.21-12.65-28.21-28.21V32.24c0-15.55,12.65-28.21,28.21-28.21s28.21,12.66,28.21,28.21v172.08c0,15.56-12.65,28.22-28.21,28.22Z"/>
  <path class="cls-1" d="m427.8,16.31c-8.79,0-15.94,7.15-15.94,15.94v172.08c0,8.79,7.15,15.94,15.94,15.94s15.94-7.15,15.94-15.94V32.24c0-8.78-7.15-15.94-15.94-15.94Zm0,216.23c-15.56,0-28.21-12.65-28.21-28.21V32.24c0-15.55,12.65-28.21,28.21-28.21s28.21,12.66,28.21,28.21v172.08c0,15.56-12.65,28.22-28.21,28.22Z"/>
  <path class="cls-1" d="m150.28,127.61h249.31v-24.76h-249.31v24.76Zm261.58,12.28H138v-49.31h273.86v49.31Z"/>
</svg>