<?xml version="1.0" encoding="UTF-8"?>
<svg id="NavBar" xmlns="http://www.w3.org/2000/svg" viewBox="0 0 500 217.82">
  <defs>
    <style>
      .cls-1 {
        fill: #0051db;
        stroke-width: 0px;
      }
    </style>
  </defs>
  <path class="cls-1" d="m30.66,64.73c-7.99,0-14.49,6.51-14.49,14.5v59.36c0,7.99,6.51,14.49,14.49,14.49s14.5-6.51,14.5-14.49v-59.36c0-7.99-6.51-14.5-14.5-14.5Zm0,99.52c-14.14,0-25.66-11.51-25.66-25.66v-59.36c0-14.15,11.52-25.66,25.66-25.66s25.67,11.52,25.67,25.66v59.36c0,14.15-11.51,25.66-25.67,25.66Z"/>
  <path class="cls-1" d="m70.82,16.17c-7.99,0-14.49,6.51-14.49,14.49v156.49c0,7.99,6.51,14.49,14.49,14.49s14.49-6.51,14.49-14.49V30.66c0-7.99-6.5-14.49-14.49-14.49Zm0,196.65c-14.15,0-25.66-11.51-25.66-25.66V30.66c0-14.14,11.52-25.66,25.66-25.66s25.66,11.52,25.66,25.66v156.49c0,14.15-11.51,25.67-25.66,25.67Z"/>
  <path class="cls-1" d="m110.97,16.17c-7.99,0-14.5,6.51-14.5,14.49v156.49c0,7.99,6.51,14.49,14.5,14.49s14.49-6.51,14.49-14.49V30.66c0-7.99-6.5-14.49-14.49-14.49Zm0,196.65c-14.15,0-25.67-11.51-25.67-25.66V30.66c0-14.14,11.52-25.66,25.67-25.66s25.66,11.52,25.66,25.66v156.49c0,14.15-11.51,25.67-25.66,25.67Z"/>
  <path class="cls-1" d="m469.34,64.73c-7.99,0-14.5,6.51-14.5,14.49v59.36c0,7.99,6.51,14.49,14.5,14.49s14.49-6.51,14.49-14.49v-59.35c0-7.99-6.5-14.5-14.49-14.5Zm0,99.52c-14.15,0-25.67-11.51-25.67-25.66v-59.36c0-14.15,11.52-25.66,25.67-25.66s25.66,11.52,25.66,25.66v59.36c0,14.15-11.51,25.66-25.66,25.66Z"/>
  <path class="cls-1" d="m429.18,16.17c-7.99,0-14.49,6.51-14.49,14.49v156.49c0,7.99,6.51,14.49,14.49,14.49s14.49-6.51,14.49-14.49V30.66c0-7.99-6.5-14.49-14.49-14.49Zm0,196.65c-14.15,0-25.66-11.51-25.66-25.66V30.66c0-14.14,11.51-25.66,25.66-25.66s25.66,11.52,25.66,25.66v156.49c0,14.15-11.51,25.67-25.66,25.67Z"/>
  <path class="cls-1" d="m389.03,16.17c-7.99,0-14.49,6.51-14.49,14.49v156.49c0,7.99,6.51,14.49,14.49,14.49s14.49-6.51,14.49-14.49V30.66c0-7.99-6.5-14.49-14.49-14.49Zm0,196.65c-14.15,0-25.66-11.51-25.66-25.66V30.66c0-14.14,11.51-25.66,25.66-25.66s25.66,11.52,25.66,25.66v156.49c0,14.15-11.51,25.67-25.66,25.67Z"/>
  <path class="cls-1" d="m136.64,117.39h226.73v-22.52h-226.73v22.52Zm237.9,11.17H125.47v-44.85h249.06v44.85Z"/>
</svg>